<svg xmlns="http://www.w3.org/2000/svg" version="1.1" xmlns:xlink="http://www.w3.org/1999/xlink" xmlns:svgjs="http://svgjs.dev/svgjs" width="100%" height="100%" viewBox="0 0 1000 600"><rect width="1000" height="600" x="0" y="0" fill="#007ea7"/><g><rect width="333.3333333333333" height="333.3333333333333" rx="13.333333333333334" ry="13.333333333333334" y="231.57619275423883" fill="#ccdbdc" transform="matrix(0.5970747999449572,0,0,0.5970747999449572,0,62.219203752633234)" x="209.3539581298828"/><path d="M334.0054503597818 473.2428611035198L285.48376182829327 473.2428611035198L285.48376182829327 464.4313458079638L288.19724170407704 464.4313458079638Q295.1414160098463 464.4313458079638 300.2766037317597 462.0096379618342Q305.4409686566385 459.5879301157046 305.4409686566385 450.33875677566743L305.4409686566385 450.33875677566743L305.4409686566385 346.3512054069213Q305.4409686566385 337.1020320668841 300.2766037317597 334.59279261185816Q295.1414160098463 332.0835531568323 288.19724170407704 332.0835531568323L288.19724170407704 332.0835531568323L285.48376182829327 332.0835531568323L285.48376182829327 323.242860658311L333.3635518945426 323.242860658311L376.8667615159793 443.4237596728636L419.9323130929348 323.242860658311L466.55748343167113 323.242860658311L466.55748343167113 332.0835531568323L463.81482635292195 332.0835531568323Q456.6955888293602 332.0835531568323 451.64793271634306 334.70950142371987Q446.60027660332594 337.3354496906074 446.60027660332594 347.19734429291833L446.60027660332594 347.19734429291833L446.60027660332594 449.2883774689124Q446.60027660332594 459.17944927418876 451.64793271634306 461.80539754107633Q456.6955888293602 464.4313458079638 463.81482635292195 464.4313458079638L463.81482635292195 464.4313458079638L466.55748343167113 464.4313458079638L466.55748343167113 473.2428611035198L410.6831397528976 473.2428611035198L410.6831397528976 464.4313458079638L411.29586101517134 464.4313458079638Q418.0357949001827 464.4313458079638 422.03307170644484 462.09716957073044Q426.0011713097415 459.79217053646255 426.4388293542228 451.18489566166454L426.4388293542228 451.18489566166454L426.4388293542228 338.9985502596362L378.32562166425015 473.2428611035198L366.97568971070297 473.2428611035198L318.24976075845655 339.43620830411743L318.24976075845655 449.2883774689124Q318.24976075845655 459.17944927418876 322.2470375647187 461.80539754107633Q326.2151371680154 464.4313458079638 333.3635518945426 464.4313458079638L333.3635518945426 464.4313458079638L334.0054503597818 464.4313458079638L334.0054503597818 473.2428611035198Z " fill="gold" transform="matrix(0.5970747999449572,0,0,0.5970747999449572,0,62.219203752633234)"/><path d="M687.1468596458224 473.2428611035198L626.0206194332737 473.2428611035198L626.0206194332737 464.4313458079638L628.7340993090575 464.4313458079638Q635.8825140355847 464.4313458079638 640.9301701486017 461.80539754107633Q645.9778262616189 459.17944927418876 645.9778262616189 449.2883774689124L645.9778262616189 449.2883774689124L645.9778262616189 347.19734429291833Q645.9778262616189 337.3354496906074 640.9301701486017 334.70950142371987Q635.8825140355847 332.0835531568323 628.7340993090575 332.0835531568323L628.7340993090575 332.0835531568323L626.0206194332737 332.0835531568323L626.0206194332737 323.242860658311L687.1468596458224 323.242860658311L687.1468596458224 332.0835531568323L684.4042025670731 332.0835531568323Q677.255787840546 332.0835531568323 672.2373089304942 334.70950142371987Q667.189652817477 337.3354496906074 667.189652817477 347.19734429291833L667.189652817477 347.19734429291833L667.189652817477 449.2883774689124Q667.189652817477 459.17944927418876 672.2373089304942 461.80539754107633Q677.255787840546 464.4313458079638 684.4042025670731 464.4313458079638L684.4042025670731 464.4313458079638L687.1468596458224 464.4313458079638L687.1468596458224 473.2428611035198ZM751.6284781993938 473.2428611035198L703.1067896679054 473.2428611035198L703.1067896679054 464.4313458079638L705.8494467466546 464.4313458079638Q712.7644438494585 464.4313458079638 717.9288087743373 462.0096379618342Q723.0639964962506 459.5879301157046 723.0639964962506 450.33875677566743L723.0639964962506 450.33875677566743L723.0639964962506 346.3512054069213Q723.0639964962506 337.1020320668841 717.9288087743373 334.59279261185816Q712.7644438494585 332.0835531568323 705.8494467466546 332.0835531568323L705.8494467466546 332.0835531568323L703.1067896679054 332.0835531568323L703.1067896679054 323.242860658311L751.0157569371202 323.242860658311L794.4897893555915 443.4237596728636L837.5553409325469 323.242860658311L884.1805112712833 323.242860658311L884.1805112712833 332.0835531568323L881.4670313954996 332.0835531568323Q874.3186166689724 332.0835531568323 869.2709605559553 334.70950142371987Q864.2233044429381 337.3354496906074 864.2233044429381 347.19734429291833L864.2233044429381 347.19734429291833L864.2233044429381 449.2883774689124Q864.2233044429381 459.17944927418876 869.2709605559553 461.80539754107633Q874.3186166689724 464.4313458079638 881.4670313954996 464.4313458079638L881.4670313954996 464.4313458079638L884.1805112712833 464.4313458079638L884.1805112712833 473.2428611035198L828.3061675925097 473.2428611035198L828.3061675925097 464.4313458079638L828.948066057749 464.4313458079638Q835.6588227397949 464.4313458079638 839.656099546057 462.09716957073044Q843.6533763523191 459.79217053646255 844.061857193835 451.18489566166454L844.061857193835 451.18489566166454L844.061857193835 338.9985502596362L795.9486495038623 473.2428611035198L784.6278947532805 473.2428611035198L735.8727885980687 339.43620830411743L735.8727885980687 449.2883774689124Q735.8727885980687 459.17944927418876 739.8700654043308 461.80539754107633Q743.8673422105929 464.4313458079638 751.0157569371202 464.4313458079638L751.0157569371202 464.4313458079638L751.6284781993938 464.4313458079638L751.6284781993938 473.2428611035198ZM964.4469966291455 473.2428611035198L900.1696184963319 473.2428611035198L900.1696184963319 464.4313458079638L902.8830983721157 464.4313458079638Q910.0315130986428 464.4313458079638 915.07916921166 461.80539754107633Q920.1268253246772 459.17944927418876 920.1268253246772 449.2883774689124L920.1268253246772 449.2883774689124L920.1268253246772 346.3512054069213Q920.1268253246772 337.1020320668841 914.9624603997983 334.59279261185816Q909.8272726778848 332.0835531568323 902.8830983721157 332.0835531568323L902.8830983721157 332.0835531568323L900.1696184963319 332.0835531568323L900.1696184963319 323.242860658311L964.4469966291455 323.242860658311Q997.0087551385509 323.242860658311 1014.9527349622822 342.79158664514034Q1032.9258919889792 362.31113542900437 1032.9258919889792 398.02403185867473L1032.9258919889792 398.02403185867473Q1032.9258919889792 420.9281361865271 1025.2522876090745 437.850913906469Q1017.5786832291699 454.74451442344537 1002.4648920930838 463.9936877634826Q987.3511009569978 473.2428611035198 964.4469966291455 473.2428611035198L964.4469966291455 473.2428611035198ZM941.3386518805353 462.5348276152117L959.6035809368861 462.5348276152117Q984.6084438782486 462.5348276152117 997.096286747447 445.8162903160278Q1009.613306819611 429.12693021980925 1009.613306819611 398.02403185867473L1009.613306819611 398.02403185867473Q1009.613306819611 366.74607027974776 997.2129955593089 350.23177340132173Q984.8126842990066 333.7466537258611 959.8078213576442 333.7466537258611L959.8078213576442 333.7466537258611L941.3386518805353 333.7466537258611L941.3386518805353 462.5348276152117ZM1115.4973763811092 473.2428611035198L1052.8830988173245 473.2428611035198L1052.8830988173245 464.4313458079638L1055.6257558960735 464.4313458079638Q1062.7449934196354 464.4313458079638 1067.7926495326526 461.80539754107633Q1072.8403056456696 459.17944927418876 1072.8403056456696 449.2883774689124L1072.8403056456696 449.2883774689124L1072.8403056456696 346.3512054069213Q1072.8403056456696 337.1020320668841 1067.7051179237562 334.59279261185816Q1062.5407529988775 332.0835531568323 1055.6257558960735 332.0835531568323L1055.6257558960735 332.0835531568323L1052.8830988173245 332.0835531568323L1052.8830988173245 323.242860658311L1109.1951005405792 323.242860658311Q1136.5049625162096 323.242860658311 1149.8389442714051 332.3753251864865Q1163.1729260266006 341.5369669176274 1163.1729260266006 360.85227528073347L1163.1729260266006 360.85227528073347Q1163.1729260266006 374.9156871100645 1155.703562067454 382.5892914899692Q1148.2633753112725 390.26289586987383 1137.1176837784833 393.8225146316547L1137.1176837784833 393.8225146316547L1137.1176837784833 394.6686535176518Q1151.4145132315375 397.2070701756431 1160.4302689478513 406.54377512457654Q1169.4752018671306 415.88048007350994 1169.4752018671306 432.68654898159014L1169.4752018671306 432.68654898159014Q1169.4752018671306 473.2428611035198 1115.4973763811092 473.2428611035198L1115.4973763811092 473.2428611035198ZM1094.052132201528 389.4167569838767L1108.55320207534 389.4167569838767Q1127.0515487554144 389.4167569838767 1133.8790142493222 382.70600030183084Q1140.7064797432295 375.9660664168195 1140.7064797432295 360.85227528073347L1140.7064797432295 360.85227528073347Q1140.7064797432295 345.3008261001662 1133.3538245959444 339.5237399130137Q1126.0011694486593 333.7466537258611 1108.1447212338242 333.7466537258611L1108.1447212338242 333.7466537258611L1094.052132201528 333.7466537258611L1094.052132201528 389.4167569838767ZM1094.052132201528 462.7390680359697L1114.4469970743542 462.7390680359697Q1132.3034452891895 462.7390680359697 1139.6561004364744 455.7948937302004Q1147.0087555837597 448.8798966273966 1147.0087555837597 432.0738277193164L1147.0087555837597 432.0738277193164Q1147.0087555837597 415.67623965275203 1140.1812900898522 407.7983948520895Q1133.3538245959444 399.92055005142686 1114.85547791587 399.92055005142686L1114.85547791587 399.92055005142686L1094.052132201528 399.92055005142686L1094.052132201528 462.7390680359697ZM1242.1556144539845 423.8750336860342L1187.5358905027238 423.8750336860342L1187.5358905027238 408.11934408470904L1242.1556144539845 408.11934408470904L1242.1556144539845 423.8750336860342ZM1305.3826132800432 473.2428611035198L1266.956236974589 343.2000674866562Q1264.855478361079 336.48931080461034 1261.500100020056 334.2718433792386Q1258.1155444760675 332.0835531568323 1252.0466862592607 332.0835531568323L1252.0466862592607 332.0835531568323L1249.3040291805116 332.0835531568323L1249.3040291805116 323.242860658311L1307.0748910520374 323.242860658311L1307.0748910520374 332.0835531568323L1302.231475359778 332.0835531568323Q1289.626923678718 332.0835531568323 1289.626923678718 342.1496881799012L1289.626923678718 342.1496881799012Q1289.626923678718 343.8419659518954 1290.1521133320955 345.7384841446475Q1290.677302985473 347.60582513443416 1291.3192014507122 349.94000137166756L1291.3192014507122 349.94000137166756L1310.634509813818 417.16427700398833Q1313.3771668925674 426.6176907647834 1315.6821659268353 435.8376869018552Q1317.9871649611032 445.0868602418924 1319.6794427330974 452.6437558099354L1319.6794427330974 452.6437558099354Q1321.3717205050916 444.4741389796186 1323.4724791186018 434.6997759862039Q1325.5732377321117 424.92541299278923 1328.2867176078955 414.8301007667549L1328.2867176078955 414.8301007667549L1353.2915805492578 324.7308980095473L1368.4053716853439 324.7308980095473L1394.6648543542192 415.67623965275203Q1397.6117518537262 425.97579229954425 1399.9167508879943 435.6334464810973Q1402.2509271252275 445.2911006626503 1403.7097872734983 452.6437558099354L1403.7097872734983 452.6437558099354Q1405.4020650454927 445.0868602418924 1407.386114847141 436.68382578785224Q1409.3701646487893 428.2807913338122 1412.1128217275386 418.2146563107433L1412.1128217275386 418.2146563107433L1430.611168407613 353.29537971269053Q1431.2238896698866 350.7569630546992 1432.0700285558837 347.40158471367624Q1432.916167441881 344.0462063726533 1432.916167441881 342.3539286006591L1432.916167441881 342.3539286006591Q1432.916167441881 332.0835531568323 1419.0569960333078 332.0835531568323L1419.0569960333078 332.0835531568323L1414.2135803410486 332.0835531568323L1414.2135803410486 323.242860658311L1465.4779259512861 323.242860658311L1465.4779259512861 332.0835531568323L1461.480649145024 332.0835531568323Q1455.3826137252518 332.0835531568323 1451.9105265723674 335.00127345337404Q1448.467616622448 337.9481709528811 1445.520719122941 348.45196402043126L1445.520719122941 348.45196402043126L1410.0120631140285 473.2428611035198L1391.105235592438 473.2428611035198L1356.8511993110387 355.6003787469584L1324.7270988461146 473.2428611035198L1305.3826132800432 473.2428611035198Z " fill="gold" transform="matrix(0.5970747999449572,0,0,0.5970747999449572,0,62.219203752633234)"/></g></svg>